<svg width="100" height="174" viewBox="0 0 100 174" fill="none" xmlns="http://www.w3.org/2000/svg">
<path d="M99.5 42.9521C99.5 49.5642 94.1268 55.685 85.1317 60.1825C76.1666 64.6651 63.7463 67.4521 50 67.4521C36.2537 67.4521 23.8334 64.6651 14.8683 60.1825C5.8732 55.685 0.5 49.5642 0.5 42.9521C0.5 36.3399 5.8732 30.2192 14.8683 25.7216C23.8334 21.2391 36.2537 18.4521 50 18.4521C63.7463 18.4521 76.1666 21.2391 85.1317 25.7216C94.1268 30.2192 99.5 36.3399 99.5 42.9521Z" stroke="white"/>
<line x1="0.497947" y1="43.9068" x2="10.4979" y2="153.907" stroke="white"/>
<line x1="99.4979" y1="43.9974" x2="89.4979" y2="153.997" stroke="white"/>
<path d="M89.5 153.952C89.5 159.184 85.2461 164.054 78.0607 167.647C70.9051 171.225 60.9849 173.452 50 173.452C39.0151 173.452 29.0949 171.225 21.9393 167.647C14.7539 164.054 10.5 159.184 10.5 153.952C10.5 148.721 14.7539 143.85 21.9393 140.257C29.0949 136.679 39.0151 134.452 50 134.452C60.9849 134.452 70.9051 136.679 78.0607 140.257C85.2461 143.85 89.5 148.721 89.5 153.952Z" stroke="white"/>
<path d="M7 64.4521L17.5 154.952C27.1667 163.619 55.1 175.752 81.5 154.952C81.5 148.952 92.5 64.4521 92.5 64.4521" stroke="white"/>
<path d="M50.4921 0.863511L49.5113 0.846421C46.7026 13.8366 40.7308 26.1763 35.4335 36.9671C35.3028 37.2334 35.1724 37.4988 35.0425 37.7633C32.5459 42.847 30.2196 47.5838 28.4924 51.8528C26.6783 56.3364 25.5 60.3615 25.5 63.7756C25.5 77.3066 36.469 88.2756 50 88.2756C63.531 88.2756 74.5 77.3066 74.5 63.7756C74.5 60.3573 73.2472 56.2593 71.3444 51.6909C69.6159 47.5411 67.3276 42.9505 64.8921 38.0648C64.6412 37.5614 64.3887 37.055 64.1351 36.5455C58.6936 25.6134 52.7275 13.2827 50.4921 0.863511Z" stroke="white"/>
<mask id="mask0" mask-type="alpha" maskUnits="userSpaceOnUse" x="26" y="0" width="48" height="88">
<path d="M74 63.7756C74 77.0304 63.2548 87.7756 50 87.7756C36.7452 87.7756 26 77.0304 26 63.7756C26 50.5208 44.3529 27.0697 50 0.952087C54.5 25.9521 74 50.5208 74 63.7756Z" fill="white"/>
</mask>
<g mask="url(#mask0)">
</g>
</svg>
