<svg width="100" height="157" viewBox="0 0 100 157" fill="none" xmlns="http://www.w3.org/2000/svg">
<path d="M99.5 25.9521C99.5 32.5642 94.1268 38.685 85.1317 43.1825C76.1666 47.6651 63.7463 50.4521 50 50.4521C36.2537 50.4521 23.8334 47.6651 14.8683 43.1825C5.8732 38.685 0.5 32.5642 0.5 25.9521C0.5 19.3399 5.8732 13.2192 14.8683 8.72163C23.8334 4.23905 36.2537 1.45209 50 1.45209C63.7463 1.45209 76.1666 4.23905 85.1317 8.72163C94.1268 13.2192 99.5 19.3399 99.5 25.9521Z" stroke="white"/>
<path d="M10.5 139.5C8 124 5 79 5 79H94.5L89.5 139.5C70 168.5 13 155 10.5 139.5Z" fill="white"/>
<ellipse cx="50" cy="84.5" rx="45" ry="22.5" fill="white"/>
<line x1="0.497947" y1="26.9068" x2="10.4979" y2="136.907" stroke="white"/>
<line x1="99.4979" y1="26.9974" x2="89.4979" y2="136.997" stroke="white"/>
<path d="M89.5 136.952C89.5 142.184 85.2461 147.054 78.0607 150.647C70.9051 154.225 60.9849 156.452 50 156.452C39.0151 156.452 29.0949 154.225 21.9393 150.647C14.7539 147.054 10.5 142.184 10.5 136.952C10.5 131.721 14.7539 126.85 21.9393 123.257C29.0949 119.679 39.0151 117.452 50 117.452C60.9849 117.452 70.9051 119.679 78.0607 123.257C85.2461 126.85 89.5 131.721 89.5 136.952Z" stroke="white"/>
<path d="M7 47.4521L17.5 137.952C27.1667 146.619 55.1 158.752 81.5 137.952C81.5 131.952 92.5 47.4521 92.5 47.4521" stroke="white"/>
<path d="M94.5 81.5C94.5 87.4218 89.6864 92.9176 81.5962 96.9627C73.5359 100.993 62.3656 103.5 50 103.5C37.6344 103.5 26.4641 100.993 18.4038 96.9627C10.3136 92.9176 5.5 87.4218 5.5 81.5C5.5 75.5782 10.3136 70.0824 18.4038 66.0373C26.4641 62.0071 37.6344 59.5 50 59.5C62.3656 59.5 73.5359 62.0071 81.5962 66.0373C89.6864 70.0824 94.5 75.5782 94.5 81.5Z" stroke="#6BBDA9"/>
</svg>
