<svg width="121" height="73" viewBox="0 0 121 73" fill="none" xmlns="http://www.w3.org/2000/svg">
<path fill-rule="evenodd" clip-rule="evenodd" d="M33.7782 31.8394L26.1388 16.5027C31.6362 12.8356 40.2449 7.8631 48.6639 4.55919C52.9685 2.86988 57.2015 1.62564 60.9313 1.20681C64.6717 0.786797 67.8288 1.20532 70.0568 2.74781C72.2215 4.24642 73.0619 6.91634 72.8723 10.4449C72.683 13.9679 71.468 18.2264 69.672 22.7075C66.1527 31.488 60.4596 40.9854 56.1874 47.1948L41.104 39.196C41.9165 35.7535 41.4147 33.5963 40.1005 32.4157L62.4706 11.2186L61.7828 10.4927L39.2539 31.8404C38.3947 31.4079 37.3987 31.2853 36.4389 31.3304C35.5117 31.3739 34.5839 31.5752 33.7782 31.8394ZM33.8912 49.7607L32.1113 47.8729C33.797 46.3435 37.2985 43.1467 40.6056 40.0637L56.1118 48.2866L56.5039 48.4946L56.7569 48.1298C61.0793 41.8967 66.9734 32.1284 70.6002 23.0796C72.412 18.5589 73.6729 14.182 73.8708 10.4985C74.0685 6.82055 73.2077 3.71289 70.626 1.92562C68.1078 0.182228 64.6601 -0.218185 60.8197 0.21306C56.9687 0.645497 52.6447 1.92271 48.2985 3.62831C39.6042 7.04029 30.7331 12.202 25.2159 15.9174L24.8521 16.1624L25.0477 16.5551L32.93 32.3794L25.4825 40.8424L23.851 39.112L23.4977 38.7374L23.1336 39.1015L1.22774 61.0074L1.10989 61.1252L1.08632 61.2902C0.774261 63.4746 0.900491 66.6571 2.39131 69.0068C3.1462 70.1966 4.25133 71.1712 5.80796 71.677C7.35675 72.1802 9.30977 72.2058 11.7457 71.5812L11.8857 71.5453L11.985 71.4402C12.5328 70.8601 13.124 70.23 13.7522 69.5605L13.7534 69.5592C19.0783 63.8837 27.0604 55.376 33.8195 50.5095L34.2827 50.176L33.8912 49.7607Z" fill="white"/>
<circle cx="76" cy="26" r="15" fill="white"/>
<circle cx="87.5" cy="10.5" r="9.5" fill="white"/>
<circle cx="116" cy="5" r="5" fill="white"/>
</svg>
